HIERARCHY
ROOT Hips
{
	OFFSET 0.000000 0.000000 0.000000
	CHANNELS 6 Xposition Yposition Zposition Zrotation Yrotation Xrotation 
	JOINT LHipJoint
	{
		OFFSET 0.000000 0.000000 0.000000
		CHANNELS 3 Zrotation Yrotation Xrotation
		JOINT LeftUpLeg
		{
			OFFSET 1.363060 -1.794630 0.839290
			CHANNELS 3 Zrotation Yrotation Xrotation
			JOINT LeftLeg
			{
				OFFSET 2.448110 -6.726130 0.000000
				CHANNELS 3 Zrotation Yrotation Xrotation
				JOINT LeftFoot
				{
					OFFSET 2.562200 -7.039590 0.000000
					CHANNELS 3 Zrotation Yrotation Xrotation
					JOINT LeftToeBase
					{
						OFFSET 0.157640 -0.433110 2.322550
						CHANNELS 3 Zrotation Yrotation Xrotation
						End Site
						{
							OFFSET 0.000000 0.000000 0.000000
						}
					}
				}
			}
		}
	}
	JOINT RHipJoint
	{
		OFFSET 0.000000 0.000000 0.000000
		CHANNELS 3 Zrotation Yrotation Xrotation
		JOINT RightUpLeg
		{
			OFFSET -1.305520 -1.794630 0.839290
			CHANNELS 3 Zrotation Yrotation Xrotation
			JOINT RightLeg
			{
				OFFSET -2.542530 -6.985550 0.000000
				CHANNELS 3 Zrotation Yrotation Xrotation
				JOINT RightFoot
				{
					OFFSET -2.568260 -7.056230 0.000000
					CHANNELS 3 Zrotation Yrotation Xrotation
					JOINT RightToeBase
					{
						OFFSET -0.164730 -0.452590 2.363150
						CHANNELS 3 Zrotation Yrotation Xrotation
						End Site
						{
							OFFSET 0.000000 0.000000 0.000000
						}
					}
				}
			}
		}
	}
	JOINT LowerBack
	{
		OFFSET 0.000000 0.000000 0.000000
		CHANNELS 3 Zrotation Yrotation Xrotation
		JOINT Spine
		{
			OFFSET 0.028270 2.035590 -0.193380
			CHANNELS 3 Zrotation Yrotation Xrotation
			JOINT Spine1
			{
				OFFSET 0.056720 2.048850 -0.042750
				CHANNELS 3 Zrotation Yrotation Xrotation
				JOINT Neck
				{
					OFFSET 0.000000 0.000000 0.000000
					CHANNELS 3 Zrotation Yrotation Xrotation
					JOINT Neck1
					{
						OFFSET -0.054170 1.746240 0.172020
						CHANNELS 3 Zrotation Yrotation Xrotation
						JOINT Head
						{
							OFFSET 0.104070 1.761360 -0.123970
							CHANNELS 3 Zrotation Yrotation Xrotation
							End Site
							{
								OFFSET 0.000000 0.000000 0.000000
							}
						}
					}
				}
				JOINT LeftShoulder
				{
					OFFSET 0.000000 0.000000 0.000000
					CHANNELS 3 Zrotation Yrotation Xrotation
					JOINT LeftArm
					{
						OFFSET 3.362410 1.200890 -0.311210
						CHANNELS 3 Zrotation Yrotation Xrotation
						JOINT LeftForeArm
						{
							OFFSET 4.983000 -0.000000 -0.000000
							CHANNELS 3 Zrotation Yrotation Xrotation
							JOINT LeftHand
							{
								OFFSET 3.483560 -0.000000 -0.000000
								CHANNELS 3 Zrotation Yrotation Xrotation
								JOINT LeftFingerBase
								{
									OFFSET 0.000000 0.000000 0.000000
									CHANNELS 3 Zrotation Yrotation Xrotation
									JOINT LeftHandIndex1
									{
										OFFSET 0.715260 -0.000000 -0.000000
										CHANNELS 3 Zrotation Yrotation Xrotation
										End Site
										{
											OFFSET 0.000000 0.000000 0.000000
										}
									}
								}
								JOINT LThumb
								{
									OFFSET 0.000000 0.000000 0.000000
									CHANNELS 3 Zrotation Yrotation Xrotation
									End Site
									{
										OFFSET 0.000000 0.000000 0.000000
									}
								}
							}
						}
					}
				}
				JOINT RightShoulder
				{
					OFFSET 0.000000 0.000000 0.000000
					CHANNELS 3 Zrotation Yrotation Xrotation
					JOINT RightArm
					{
						OFFSET -3.136600 1.374050 -0.404650
						CHANNELS 3 Zrotation Yrotation Xrotation
						JOINT RightForeArm
						{
							OFFSET -5.241900 -0.000000 -0.000000
							CHANNELS 3 Zrotation Yrotation Xrotation
							JOINT RightHand
							{
								OFFSET -3.444170 -0.000000 -0.000000
								CHANNELS 3 Zrotation Yrotation Xrotation
								JOINT RightFingerBase
								{
									OFFSET 0.000000 0.000000 0.000000
									CHANNELS 3 Zrotation Yrotation Xrotation
									JOINT RightHandIndex1
									{
										OFFSET -0.622530 -0.000000 -0.000000
										CHANNELS 3 Zrotation Yrotation Xrotation
										End Site
										{
											OFFSET 0.000000 0.000000 0.000000
										}
									}
								}
								JOINT RThumb
								{
									OFFSET 0.000000 0.000000 0.000000
									CHANNELS 3 Zrotation Yrotation Xrotation
									End Site
									{
										OFFSET 0.000000 0.000000 0.000000
									}
								}
							}
						}
					}
				}
			}
		}
	}
}
MOTION
Frames: 4
Frame Time: 0.008333
-0.297944 16.985003 -7.526477 -1.434702 -7.106868 22.072420 2.486102 -0.318483 -1.020209 -6.191946 -6.371119 -66.238512 19.667985 22.441329 88.568930 1.975183 -8.510763 16.102284 0.571300 -4.840500 -13.454300 0.039453 -1.824532 2.540688 18.560288 7.709517 -6.452232 -2.467423 -10.717101 33.919150 0.487381 -3.896151 4.653947 -3.483500 11.439300 -33.776300 2.724237 3.847344 17.226814 0.614700 5.331492 -2.335673 -0.830651 2.932610 -6.331988 -6.595352 -4.030886 -15.327713 3.512770 -3.851108 -3.338399 2.966100 -1.615200 3.764400 -2.135503 2.704586 -3.201497 -62.211994 36.846592 51.034104 89.099745 -65.565458 -68.983521 0.461081 -2.401901 -26.878833 15.220585 13.719726 4.519800 -7.125000 0.000000 0.000000 -11.168500 46.369000 -0.382000 -0.364200 -1.129270 -1.075298 85.304640 16.404809 47.391376 -131.492999 52.495375 -98.378648 2.025985 -1.272738 -19.392804 -17.134086 30.337716 -10.123300 7.125000 0.000000 0.000000 7.410900 3.196400 7.877300 
-0.302897 17.019256 -6.975487 -1.263259 -6.352976 22.003134 2.470304 -0.342846 -1.159136 -5.940148 -7.338539 -67.112448 18.575697 22.505330 85.601924 2.183588 -9.786681 15.664374 0.571600 -4.841900 -13.458200 0.208975 -2.017045 2.911270 18.131865 6.731685 -3.976967 -1.737489 -9.697751 30.778700 0.122624 -3.098493 9.036107 -3.263000 11.109100 -32.648600 3.006493 3.979578 16.895787 0.538645 5.515461 -2.393872 -1.312528 3.048567 -6.410219 -6.460722 -4.364355 -15.058052 3.468295 -4.334812 -3.226849 2.886300 -1.866200 3.797700 -2.022597 2.787471 -3.185827 -60.902710 38.483279 51.200854 93.769559 -66.160514 -72.104165 0.250334 -2.189441 -26.786747 14.532631 11.081121 3.567500 -7.125000 0.000000 0.000000 -10.942700 43.337400 0.454800 -0.509039 -1.149619 -1.070600 84.720718 16.134740 47.669363 -134.596415 50.816337 -100.493054 2.030414 -1.373637 -20.391299 -16.870599 31.045697 -10.163900 7.125000 0.000000 0.000000 7.701300 3.977500 8.290000 
-0.306797 17.060148 -6.407212 -0.992140 -5.269155 21.741470 2.421326 -0.376109 -1.312393 -5.790865 -8.561503 -67.419121 17.359502 22.500895 82.332930 2.403164 -11.101068 15.438008 0.597500 -4.948600 -13.762000 0.401904 -2.246970 3.347737 17.676700 5.663172 -1.153894 -0.987227 -8.524221 27.265697 -0.300842 -2.662804 15.058966 -2.471100 9.785100 -28.283500 3.377051 3.956191 16.693392 0.460677 5.508818 -2.437536 -1.863225 3.073248 -6.484304 -6.253203 -4.690223 -14.826299 3.517226 -4.819799 -3.147202 2.836600 -2.106600 3.828900 -1.941199 2.882021 -3.157382 -59.773200 40.043135 51.522514 97.174509 -66.443103 -74.307539 -0.120520 -1.895040 -27.147844 14.474260 5.473822 1.963100 -7.125000 0.000000 0.000000 -9.612700 37.209500 1.863600 -0.638430 -1.161937 -1.059826 84.219912 15.660875 48.085579 -136.944350 49.400049 -102.089312 2.049499 -1.380760 -20.576835 -17.478428 30.485372 -10.374400 7.125000 0.000000 0.000000 7.284900 3.553500 7.784000 
-0.319444 17.097773 -5.830190 -0.673608 -4.274129 21.520375 2.340142 -0.402148 -1.481252 -5.840509 -9.580640 -67.344748 16.039197 22.407777 78.794396 2.618964 -12.330841 15.182089 0.547500 -4.740500 -13.169800 0.641272 -2.538135 3.813588 17.099270 5.104239 1.933674 -0.280982 -7.212863 23.199315 -0.534225 -4.041017 22.406392 -1.722600 8.262600 -23.514600 3.424113 3.936256 16.366091 0.413477 5.444819 -2.458782 -2.084567 3.080703 -6.418161 -6.159683 -4.984878 -14.844846 3.647782 -5.219236 -3.061130 2.829900 -2.297700 3.911000 -1.831218 2.980125 -3.129226 -59.179781 41.651185 51.297340 102.045542 -66.425657 -77.217986 0.227051 -2.073396 -26.589496 13.064730 11.895991 3.367100 -7.125000 0.000000 0.000000 -12.466300 43.871700 0.352900 -0.749379 -1.168228 -1.051810 83.695358 14.966477 48.542637 -138.886132 48.154153 -103.393864 2.077382 -1.340573 -20.859758 -18.231997 29.537201 -10.545600 7.125000 0.000000 0.000000 6.715000 2.728800 7.075000 
